<svg xmlns="http://www.w3.org/2000/svg" width="352" height="246" fill="none" viewBox="0 0 352 246">
  <path fill="#F44C6F" d="M29.637 82.654a1.5 1.5 0 1 1 2.12 2.12l-5.43 5.432 5.43 5.432a1.5 1.5 0 1 1-2.12 2.121l-5.432-5.432-5.43 5.432a1.5 1.5 0 0 1-2.122-2.121l5.431-5.432-5.43-5.431a1.5 1.5 0 0 1 2.12-2.121l5.431 5.43 5.432-5.43ZM13.423 98.44a1.5 1.5 0 1 1 2.12 2.121l-5.43 5.431 5.43 5.432a1.5 1.5 0 1 1-2.12 2.121l-5.432-5.432-5.43 5.432a1.5 1.5 0 0 1-2.121-2.121l5.43-5.432-5.43-5.431a1.5 1.5 0 0 1 2.12-2.122l5.431 5.431 5.432-5.43Z"/>
  <path fill="#F44C6F" d="M13.423 114.439a1.501 1.501 0 0 1 2.12 2.122l-5.43 5.431 5.43 5.432a1.5 1.5 0 1 1-2.12 2.121l-5.432-5.432-5.43 5.432a1.5 1.5 0 0 1-2.121-2.121l5.43-5.432-5.43-5.431a1.501 1.501 0 0 1 2.12-2.122l5.431 5.431 5.432-5.431Zm16 18a1.501 1.501 0 0 1 2.12 2.122l-5.43 5.431 5.43 5.432a1.5 1.5 0 1 1-2.12 2.121l-5.432-5.432-5.43 5.432a1.5 1.5 0 0 1-2.121-2.121l5.43-5.432-5.43-5.431a1.5 1.5 0 0 1 2.12-2.122l5.431 5.431 5.432-5.431Zm17 0a1.501 1.501 0 0 1 2.12 2.122l-5.43 5.431 5.43 5.432a1.5 1.5 0 1 1-2.12 2.121l-5.432-5.432-5.43 5.432a1.5 1.5 0 0 1-2.121-2.121l5.43-5.432-5.43-5.431a1.5 1.5 0 0 1 2.12-2.122l5.431 5.431 5.432-5.431Zm17 0a1.501 1.501 0 0 1 2.12 2.122l-5.43 5.431 5.43 5.432a1.5 1.5 0 1 1-2.12 2.121l-5.432-5.432-5.43 5.432a1.5 1.5 0 0 1-2.121-2.121l5.43-5.432-5.43-5.431a1.5 1.5 0 0 1 2.12-2.122l5.431 5.431 5.432-5.431Zm16-16a1.501 1.501 0 0 1 2.12 2.122l-5.43 5.431 5.43 5.432a1.5 1.5 0 1 1-2.12 2.121l-5.432-5.432-5.43 5.432a1.5 1.5 0 0 1-2.121-2.121l5.43-5.432-5.43-5.431a1.5 1.5 0 0 1 2.12-2.122l5.431 5.431 5.432-5.431Zm33-32.999a1.5 1.5 0 1 1 2.121 2.12l-5.432 5.432 5.432 5.432a1.5 1.5 0 1 1-2.121 2.12l-5.432-5.43-5.43 5.43a1.5 1.5 0 0 1-2.122-2.12l5.431-5.432-5.43-5.431a1.5 1.5 0 1 1 2.121-2.122l5.43 5.431 5.432-5.43Zm33-33a1.5 1.5 0 1 1 2.121 2.12l-5.432 5.432 5.432 5.432a1.5 1.5 0 1 1-2.121 2.12l-5.432-5.43-5.43 5.43a1.501 1.501 0 0 1-2.122-2.12l5.431-5.432-5.431-5.431a1.501 1.501 0 0 1 2.122-2.121l5.43 5.43 5.432-5.43Zm66 1a1.5 1.5 0 1 1 2.121 2.12l-5.432 5.432 5.432 5.432a1.5 1.5 0 1 1-2.121 2.12l-5.432-5.43-5.43 5.43a1.501 1.501 0 0 1-2.122-2.12l5.431-5.432-5.431-5.431a1.501 1.501 0 0 1 2.122-2.121l5.43 5.43 5.432-5.43Zm-33-34a1.5 1.5 0 1 1 2.121 2.12l-5.432 5.432 5.432 5.432a1.5 1.5 0 1 1-2.121 2.12l-5.432-5.43-5.43 5.43a1.501 1.501 0 0 1-2.122-2.12l5.431-5.432-5.431-5.431a1.501 1.501 0 0 1 2.122-2.122l5.43 5.431 5.432-5.43Zm135 0a1.5 1.5 0 1 1 2.121 2.12l-5.432 5.432 5.432 5.432a1.5 1.5 0 1 1-2.121 2.12l-5.432-5.43-5.43 5.43a1.501 1.501 0 0 1-2.122-2.12l5.431-5.432-5.431-5.431a1.501 1.501 0 0 1 2.122-2.122l5.43 5.431 5.432-5.43Zm-69 1a1.5 1.5 0 1 1 2.121 2.12l-5.432 5.432 5.432 5.432a1.5 1.5 0 1 1-2.121 2.12l-5.432-5.43-5.43 5.43a1.501 1.501 0 0 1-2.122-2.12l5.431-5.432-5.431-5.431a1.501 1.501 0 0 1 2.122-2.122l5.43 5.431 5.432-5.43Zm-66 16a1.5 1.5 0 1 1 2.121 2.12l-5.432 5.432 5.432 5.432a1.5 1.5 0 1 1-2.121 2.12l-5.432-5.43-5.43 5.43a1.501 1.501 0 0 1-2.122-2.12l5.431-5.432-5.431-5.431a1.501 1.501 0 0 1 2.122-2.121l5.43 5.43 5.432-5.43Zm135 0a1.5 1.5 0 1 1 2.121 2.12l-5.432 5.432 5.432 5.432a1.5 1.5 0 1 1-2.121 2.12l-5.432-5.43-5.43 5.43a1.501 1.501 0 0 1-2.122-2.12l5.431-5.432-5.431-5.431a1.501 1.501 0 0 1 2.122-2.121l5.43 5.43 5.432-5.43Z"/>
  <path fill="#F44C6F" d="M178.423 50.44a1.5 1.5 0 1 1 2.121 2.12l-5.432 5.432 5.432 5.432a1.5 1.5 0 1 1-2.121 2.12l-5.432-5.43-5.43 5.43a1.501 1.501 0 0 1-2.122-2.12l5.431-5.432-5.431-5.431a1.501 1.501 0 0 1 2.122-2.121l5.43 5.43 5.432-5.43Zm0 17a1.5 1.5 0 1 1 2.121 2.12l-5.432 5.432 5.432 5.432a1.5 1.5 0 1 1-2.121 2.12l-5.432-5.43-5.43 5.43a1.501 1.501 0 0 1-2.122-2.12l5.431-5.432-5.431-5.431a1.501 1.501 0 0 1 2.122-2.122l5.43 5.431 5.432-5.43Z"/>
  <path fill="#F44C6F" d="M178.423 83.44a1.5 1.5 0 1 1 2.121 2.12l-5.432 5.432 5.432 5.432a1.5 1.5 0 1 1-2.121 2.12l-5.432-5.43-5.43 5.43a1.501 1.501 0 0 1-2.122-2.12l5.431-5.432-5.431-5.431a1.501 1.501 0 0 1 2.122-2.122l5.43 5.431 5.432-5.43Zm-82 16a1.5 1.5 0 1 1 2.12 2.121l-5.43 5.431 5.43 5.432a1.5 1.5 0 1 1-2.12 2.121l-5.432-5.432-5.43 5.432a1.5 1.5 0 0 1-2.121-2.121l5.43-5.432-5.43-5.431a1.5 1.5 0 0 1 2.12-2.122l5.431 5.431 5.432-5.43Zm33-33a1.5 1.5 0 1 1 2.121 2.12l-5.432 5.432 5.432 5.432a1.5 1.5 0 1 1-2.121 2.12l-5.432-5.43-5.43 5.43a1.501 1.501 0 0 1-2.122-2.12l5.431-5.432-5.431-5.431a1.501 1.501 0 0 1 2.122-2.122l5.43 5.431 5.432-5.43Zm66 1a1.5 1.5 0 1 1 2.121 2.12l-5.432 5.432 5.432 5.432a1.5 1.5 0 1 1-2.121 2.12l-5.432-5.43-5.43 5.43a1.501 1.501 0 0 1-2.122-2.12l5.431-5.432-5.431-5.431a1.501 1.501 0 0 1 2.122-2.122l5.43 5.431 5.432-5.43Zm-33-34a1.5 1.5 0 1 1 2.121 2.12l-5.432 5.432 5.432 5.432a1.5 1.5 0 1 1-2.121 2.12l-5.432-5.43-5.43 5.43a1.501 1.501 0 0 1-2.122-2.12l5.431-5.432-5.431-5.431a1.501 1.501 0 0 1 2.122-2.121l5.43 5.43 5.432-5.43Zm66 1a1.5 1.5 0 1 1 2.121 2.12l-5.432 5.432 5.432 5.432a1.5 1.5 0 1 1-2.121 2.12l-5.432-5.43-5.43 5.43a1.501 1.501 0 0 1-2.122-2.12l5.431-5.432-5.431-5.431a1.501 1.501 0 0 1 2.122-2.121l5.43 5.43 5.432-5.43Zm-66 16a1.5 1.5 0 1 1 2.121 2.12l-5.432 5.432 5.432 5.432a1.5 1.5 0 1 1-2.121 2.12l-5.432-5.43-5.43 5.43a1.501 1.501 0 0 1-2.122-2.12l5.431-5.432-5.431-5.431a1.501 1.501 0 0 1 2.122-2.121l5.43 5.43 5.432-5.43Zm135 0a1.5 1.5 0 1 1 2.121 2.12l-5.432 5.432 5.432 5.432a1.5 1.5 0 1 1-2.121 2.12l-5.432-5.43-5.43 5.43a1.501 1.501 0 0 1-2.122-2.12l5.431-5.432-5.431-5.431a1.501 1.501 0 0 1 2.122-2.121l5.43 5.43 5.432-5.43Z"/>
  <path fill="#F44C6F" d="M162.423 66.44a1.5 1.5 0 1 1 2.121 2.12l-5.432 5.432 5.432 5.432a1.5 1.5 0 1 1-2.121 2.12l-5.432-5.43-5.43 5.43a1.501 1.501 0 0 1-2.122-2.12l5.431-5.432-5.431-5.431a1.501 1.501 0 0 1 2.122-2.122l5.43 5.431 5.432-5.43Zm0 17a1.5 1.5 0 1 1 2.121 2.12l-5.432 5.432 5.432 5.432a1.5 1.5 0 1 1-2.121 2.12l-5.432-5.43-5.43 5.43a1.501 1.501 0 0 1-2.122-2.12l5.431-5.432-5.431-5.431a1.501 1.501 0 0 1 2.122-2.122l5.43 5.431 5.432-5.43Zm-17 0a1.5 1.5 0 1 1 2.121 2.12l-5.432 5.432 5.432 5.432a1.5 1.5 0 1 1-2.121 2.12l-5.432-5.43-5.43 5.43a1.501 1.501 0 0 1-2.122-2.12l5.431-5.432-5.431-5.431a1.501 1.501 0 0 1 2.122-2.122l5.43 5.431 5.432-5.43Z"/>
  <path fill="#F44C6F" d="M162.423 99.44a1.5 1.5 0 1 1 2.121 2.121l-5.432 5.431 5.432 5.432a1.5 1.5 0 1 1-2.121 2.121l-5.432-5.432-5.43 5.432a1.501 1.501 0 0 1-2.122-2.121l5.431-5.432-5.431-5.431a1.5 1.5 0 0 1 2.122-2.122l5.43 5.431 5.432-5.43Zm-16 15.999a1.501 1.501 0 0 1 2.121 2.122l-5.432 5.431 5.432 5.432a1.5 1.5 0 1 1-2.121 2.121l-5.432-5.432-5.43 5.432a1.501 1.501 0 0 1-2.122-2.121l5.431-5.432-5.431-5.431a1.502 1.502 0 0 1 0-2.122 1.502 1.502 0 0 1 2.122 0l5.43 5.431 5.432-5.431Z"/>
  <path fill="#F44C6F" d="M145.423 99.44a1.5 1.5 0 1 1 2.121 2.121l-5.432 5.431 5.432 5.432a1.5 1.5 0 1 1-2.121 2.121l-5.432-5.432-5.43 5.432a1.501 1.501 0 0 1-2.122-2.121l5.431-5.432-5.431-5.431a1.5 1.5 0 0 1 2.122-2.122l5.43 5.431 5.432-5.43Zm-16 15.999a1.501 1.501 0 0 1 2.121 2.122l-5.432 5.431 5.432 5.432a1.5 1.5 0 1 1-2.121 2.121l-5.432-5.432-5.43 5.432a1.501 1.501 0 0 1-2.122-2.121l5.431-5.432-5.431-5.431a1.502 1.502 0 0 1 0-2.122 1.502 1.502 0 0 1 2.122 0l5.43 5.431 5.432-5.431Zm0 17a1.501 1.501 0 0 1 2.121 2.122l-5.432 5.431 5.432 5.432a1.5 1.5 0 1 1-2.121 2.121l-5.432-5.432-5.43 5.432a1.501 1.501 0 0 1-2.122-2.121l5.431-5.432-5.431-5.431a1.502 1.502 0 0 1 0-2.122 1.502 1.502 0 0 1 2.122 0l5.43 5.431 5.432-5.431Zm66-131.999a1.5 1.5 0 0 1 2.121 2.12l-5.432 5.432 5.432 5.432a1.5 1.5 0 1 1-2.121 2.12l-5.432-5.43-5.43 5.43a1.501 1.501 0 0 1-2.122-2.12l5.431-5.432-5.431-5.431a1.501 1.501 0 0 1 2.122-2.122l5.43 5.431 5.432-5.43Zm66 1a1.5 1.5 0 0 1 2.121 2.12l-5.432 5.432 5.432 5.432a1.5 1.5 0 1 1-2.121 2.12l-5.432-5.43-5.43 5.43a1.501 1.501 0 0 1-2.122-2.12l5.431-5.432-5.431-5.431a1.501 1.501 0 0 1 2.122-2.122l5.43 5.431 5.432-5.43Zm36 0a1.5 1.5 0 0 1 2.121 2.12l-5.432 5.432 5.432 5.432a1.5 1.5 0 1 1-2.121 2.12l-5.432-5.43-5.43 5.43a1.501 1.501 0 0 1-2.122-2.12l5.431-5.432-5.431-5.431a1.501 1.501 0 0 1 2.122-2.122l5.43 5.431 5.432-5.43Zm-18 0a1.5 1.5 0 0 1 2.121 2.12l-5.432 5.432 5.432 5.432a1.5 1.5 0 1 1-2.121 2.12l-5.432-5.43-5.43 5.43a1.501 1.501 0 0 1-2.122-2.12l5.431-5.432-5.431-5.431a1.501 1.501 0 0 1 2.122-2.122l5.43 5.431 5.432-5.43Zm-84 16a1.5 1.5 0 1 1 2.121 2.12l-5.432 5.432 5.432 5.432a1.5 1.5 0 1 1-2.121 2.12l-5.432-5.43-5.43 5.43a1.501 1.501 0 0 1-2.122-2.12l5.431-5.432-5.431-5.431a1.501 1.501 0 0 1 2.122-2.122l5.43 5.431 5.432-5.43Zm107.122 117.983a1.5 1.5 0 1 1-2.121 2.121l-5.432-5.432-5.431 5.432a1.5 1.5 0 1 1-2.121-2.121l5.431-5.432-5.431-5.431a1.5 1.5 0 1 1 2.121-2.121l5.431 5.431 5.432-5.431a1.5 1.5 0 1 1 2.121 2.121l-5.431 5.431 5.431 5.432Zm0 54a1.5 1.5 0 1 1-2.121 2.121l-5.432-5.432-5.431 5.432a1.5 1.5 0 1 1-2.121-2.121l5.431-5.432-5.431-5.431a1.5 1.5 0 1 1 2.121-2.121l5.431 5.431 5.432-5.431a1.5 1.5 0 1 1 2.121 2.121l-5.431 5.431 5.431 5.432Zm-32 17.999a1.5 1.5 0 1 1-2.121 2.121l-5.432-5.431-5.431 5.431a1.5 1.5 0 1 1-2.121-2.121l5.431-5.431-5.431-5.431a1.5 1.5 0 1 1 2.121-2.121l5.431 5.43 5.432-5.43a1.5 1.5 0 1 1 2.121 2.121l-5.431 5.431 5.431 5.431Zm65 0a1.5 1.5 0 1 1-2.121 2.121l-5.432-5.431-5.431 5.431a1.5 1.5 0 1 1-2.121-2.121l5.431-5.431-5.431-5.431a1.5 1.5 0 1 1 2.121-2.121l5.431 5.43 5.432-5.43a1.5 1.5 0 1 1 2.121 2.121l-5.431 5.431 5.431 5.431Zm0-33a1.5 1.5 0 1 1-2.121 2.121l-5.432-5.431-5.431 5.431a1.5 1.5 0 1 1-2.121-2.121l5.431-5.431-5.431-5.431a1.5 1.5 0 1 1 2.121-2.121l5.431 5.43 5.432-5.43a1.5 1.5 0 1 1 2.121 2.121l-5.431 5.431 5.431 5.431Zm-65 0a1.5 1.5 0 1 1-2.121 2.121l-5.432-5.431-5.431 5.431a1.5 1.5 0 1 1-2.121-2.121l5.431-5.431-5.431-5.431a1.5 1.5 0 1 1 2.121-2.121l5.431 5.43 5.432-5.43a1.5 1.5 0 1 1 2.121 2.121l-5.431 5.431 5.431 5.431Z"/>
  <path fill="#F44C6F" d="M286.545 200.422a1.5 1.5 0 1 1-2.121 2.121l-5.432-5.431-5.431 5.431a1.5 1.5 0 1 1-2.121-2.121l5.431-5.431-5.431-5.431a1.5 1.5 0 1 1 2.121-2.121l5.431 5.43 5.432-5.43a1.5 1.5 0 1 1 2.121 2.121l-5.431 5.431 5.431 5.431Zm33 0a1.5 1.5 0 1 1-2.121 2.121l-5.432-5.431-5.431 5.431a1.5 1.5 0 1 1-2.121-2.121l5.431-5.431-5.431-5.431a1.5 1.5 0 1 1 2.121-2.121l5.431 5.43 5.432-5.43a1.5 1.5 0 1 1 2.121 2.121l-5.431 5.431 5.431 5.431Zm32-33a1.5 1.5 0 1 1-2.121 2.121l-5.432-5.431-5.431 5.431a1.5 1.5 0 1 1-2.121-2.121l5.431-5.431-5.431-5.431a1.5 1.5 0 1 1 2.121-2.121l5.431 5.43 5.432-5.43a1.5 1.5 0 1 1 2.121 2.121l-5.431 5.431 5.431 5.431Zm-97 47a1.501 1.501 0 0 1-2.122 2.121l-5.431-5.431-5.432 5.431a1.5 1.5 0 1 1-2.121-2.121l5.432-5.431-5.432-5.431a1.5 1.5 0 1 1 2.121-2.121l5.432 5.43 5.431-5.43a1.5 1.5 0 0 1 2.122 2.121l-5.431 5.431 5.431 5.431Zm97 0a1.501 1.501 0 0 1-2.122 2.121l-5.431-5.431-5.432 5.431a1.5 1.5 0 1 1-2.121-2.121l5.432-5.431-5.432-5.431a1.5 1.5 0 1 1 2.121-2.121l5.432 5.43 5.431-5.43a1.5 1.5 0 0 1 2.122 2.121l-5.431 5.431 5.431 5.431Zm-97-47a1.501 1.501 0 0 1-2.122 2.121l-5.431-5.431-5.432 5.431a1.5 1.5 0 1 1-2.121-2.121l5.432-5.431-5.432-5.431a1.5 1.5 0 1 1 2.121-2.121l5.432 5.43 5.431-5.43a1.5 1.5 0 0 1 2.122 2.121l-5.431 5.431 5.431 5.431Zm65 14a1.5 1.5 0 1 1-2.121 2.121l-5.432-5.431-5.431 5.431a1.5 1.5 0 1 1-2.121-2.121l5.431-5.431-5.431-5.431a1.5 1.5 0 1 1 2.121-2.121l5.431 5.43 5.432-5.43a1.5 1.5 0 1 1 2.121 2.121l-5.431 5.431 5.431 5.431Zm-33 0a1.5 1.5 0 1 1-2.121 2.121l-5.432-5.431-5.431 5.431a1.5 1.5 0 1 1-2.121-2.121l5.431-5.431-5.431-5.431a1.5 1.5 0 1 1 2.121-2.121l5.431 5.43 5.432-5.43a1.5 1.5 0 1 1 2.121 2.121l-5.431 5.431 5.431 5.431Zm16-27.999a1.5 1.5 0 1 1-2.121 2.121l-5.432-5.432-5.431 5.432a1.5 1.5 0 1 1-2.121-2.121l5.431-5.432-5.431-5.431a1.5 1.5 0 1 1 2.121-2.121l5.431 5.431 5.432-5.431a1.5 1.5 0 1 1 2.121 2.121l-5.431 5.431 5.431 5.432Z"/>
  <path fill="#F44C6F" d="M302.545 207.423a1.5 1.5 0 1 1-2.121 2.121l-5.432-5.432-5.431 5.432a1.5 1.5 0 1 1-2.121-2.121l5.431-5.432-5.431-5.431a1.5 1.5 0 1 1 2.121-2.121l5.431 5.431 5.432-5.431a1.5 1.5 0 1 1 2.121 2.121l-5.431 5.431 5.431 5.432Zm0-36a1.5 1.5 0 1 1-2.121 2.121l-5.432-5.432-5.431 5.432a1.5 1.5 0 1 1-2.121-2.121l5.431-5.432-5.431-5.431a1.5 1.5 0 1 1 2.121-2.121l5.431 5.431 5.432-5.431a1.5 1.5 0 1 1 2.121 2.121l-5.431 5.431 5.431 5.432Zm0 54a1.5 1.5 0 1 1-2.121 2.121l-5.432-5.432-5.431 5.432a1.5 1.5 0 1 1-2.121-2.121l5.431-5.432-5.431-5.431a1.5 1.5 0 1 1 2.121-2.121l5.431 5.431 5.432-5.431a1.5 1.5 0 1 1 2.121 2.121l-5.431 5.431 5.431 5.432Zm0 18a1.5 1.5 0 1 1-2.121 2.121l-5.432-5.432-5.431 5.432a1.5 1.5 0 1 1-2.121-2.121l5.431-5.432-5.431-5.431a1.5 1.5 0 1 1 2.121-2.121l5.431 5.431 5.432-5.431a1.5 1.5 0 1 1 2.121 2.121l-5.431 5.431 5.431 5.432Z"/>
</svg>